<svg width="15" height="16" viewBox="0 0 15 16" fill="none" xmlns="http://www.w3.org/2000/svg">
<path fill-rule="evenodd" clip-rule="evenodd" d="M1.59677 6.60107C1.59677 4.10762 3.63149 2.08628 6.14143 2.08628C8.65138 2.08628 10.6861 4.10762 10.6861 6.60107C10.6861 9.09453 8.65138 11.1159 6.14143 11.1159C3.63149 11.1159 1.59677 9.09453 1.59677 6.60107ZM6.14143 0.5C2.74961 0.5 0 3.23154 0 6.60107C0 9.9706 2.74961 12.7021 6.14143 12.7021C7.52412 12.7021 8.80008 12.2482 9.82656 11.4822L13.8709 15.5L15 14.3783L10.9686 10.3734C11.7917 9.33525 12.2829 8.02514 12.2829 6.60107C12.2829 3.23154 9.53325 0.5 6.14143 0.5Z" fill="#B7C2D7" fill-opacity="0.76"/>
</svg>
